<svg xmlns="http://www.w3.org/2000/svg" viewBox="0 0 460 460" width="100%" height="100%">
  <defs>
    <radialGradient id="yellowGrad" cx="35%" cy="35%" r="65%">
      <stop offset="0%" stop-color="#FFDF6B"/>
      <stop offset="100%" stop-color="#E5AD1A"/>
    </radialGradient>
    
    <radialGradient id="blueGrad" cx="35%" cy="35%" r="65%">
      <stop offset="0%" stop-color="#77C7FF"/>
      <stop offset="100%" stop-color="#2D92E0"/>
    </radialGradient>
    
    <radialGradient id="redGrad" cx="35%" cy="35%" r="65%">
      <stop offset="0%" stop-color="#FF7575"/>
      <stop offset="100%" stop-color="#DE3C3C"/>
    </radialGradient>
    
    <radialGradient id="greyGrad" cx="35%" cy="35%" r="65%">
      <stop offset="0%" stop-color="#666666"/>
      <stop offset="100%" stop-color="#333333"/>
    </radialGradient>
  </defs>

  <g stroke="#333333" stroke-width="16" stroke-linecap="round">
    <line x1="200" y1="220" x2="110" y2="280" />
    
    <line x1="200" y1="220" x2="300" y2="280" />
    
    <line x1="200" y1="220" x2="200" y2="110" />
    
    <line x1="200" y1="110" x2="110" y2="60" />
    
    <line x1="300" y1="280" x2="300" y2="380" />
  </g>

  <g stroke="#333333" stroke-width="14" stroke-linecap="round">
    <line x1="293" y1="272" x2="373" y2="222" />
    <line x1="307" y1="288" x2="387" y2="238" />
  </g>

  <g stroke="#333333" stroke-width="10">
    <circle cx="110" cy="60" r="48" fill="url(#yellowGrad)" />
    
    <circle cx="200" cy="110" r="42" fill="url(#greyGrad)" />
    
    <circle cx="200" cy="220" r="42" fill="url(#greyGrad)" />
    
    <circle cx="110" cy="280" r="38" fill="url(#blueGrad)" />
    
    <circle cx="300" cy="280" r="42" fill="url(#greyGrad)" />
    
    <circle cx="380" cy="230" r="38" fill="url(#redGrad)" />
    
    <circle cx="300" cy="380" r="38" fill="url(#redGrad)" />
  </g>
</svg>
